# AST/ASF file generated using VICON BodyLanguage
# -----------------------------------------------
:version 1.10
:name VICON
:units
  mass 1.0
  length 0.45
  angle deg
:documentation
   .ast/.asf automatically generated from VICON data using
   VICON BodyBuilder and BodyLanguage model FoxedUp or BRILLIANT.MOD
:root
   order TX TY TZ RX RY RZ
   axis XYZ
   position 0 0 0  
   orientation 0 0 0 
:bonedata
  begin
     id 1 
     name lhipjoint
     direction 0.603808 -0.713975 0.35448 
     length 2.2025 
     axis 0 0 0  XYZ
  end
  begin
     id 2 
     name lfemur
     direction 0.34202 -0.939693 0  
     length 6.55877  
     axis 0 0 20  XYZ
    dof rx ry rz
    limits (-160.0 20.0)
           (-70.0 70.0)
           (-60.0 70.0)
  end
  begin
     id 3 
     name ltibia
     direction 0.34202 -0.939693 0   
     length 6.80302   
     axis 0 0 20   XYZ
    dof rx
    limits (-10.0 170.0)
  end
  begin
     id 4 
     name lfoot
     direction 0.091848 -0.25235 0.963267   
     length 2.03446   
     axis -90 7.62852e-016 20   XYZ
    dof rx rz
    limits (-45.0 90.0)
           (-70.0 20.0)
  end
  begin
     id 5 
     name ltoes
     direction 1.53608e-011 -4.21925e-011 1   
     length 1.02033   
     axis -90 7.62852e-016 20   XYZ
    dof rx
    limits (-90.0 20.0)
  end
  begin
     id 6 
     name rhipjoint
     direction -0.587285 -0.724947 0.359928   
     length 2.16916  
     axis 0 0 0  XYZ 
  end
  begin
     id 7 
     name rfemur
     direction -0.34202 -0.939693 0   
     length 6.43173   
     axis 0 0 -20   XYZ
    dof rx ry rz
    limits (-160.0 20.0)
           (-70.0 70.0)
           (-70.0 60.0)
  end
  begin
     id 8 
     name rtibia
     direction -0.34202 -0.939693 0   
     length 6.70662   
     axis 0 0 -20   XYZ
    dof rx
    limits (-10.0 170.0)
 end
 begin
     id 9 
     name rfoot
     direction -0.11854 -0.325686 0.938018   
     length 2.0773  
     axis -90 -7.62852e-016 -20   XYZ
    dof rx rz
    limits (-45.0 90.0)
           (-20.0 70.0)
  end
  begin
     id 10 
     name rtoes
     direction -1.53547e-011 -4.21838e-011 1   
     length 1.03267   
     axis -90 -7.62852e-016 -20   XYZ
    dof rx
    limits (-90.0 20.0)
  end
  begin
     id 11 
     name lowerback
     direction -0.0286554 0.999539 0.0100613   
     length 2.08751   
     axis 0 0 0   XYZ
    dof rx ry rz
    limits (-20.0 45.0)
           (-30.0 30.0)
           (-30.0 30.0)
  end
  begin
     id 12 
     name upperback
     direction 0.0227093 0.999705 -0.00860929   
     length 2.08517   
     axis 0 0 0   XYZ
    dof rx ry rz
    limits (-20.0 45.0)
           (-30.0 30.0)
           (-30.0 30.0)
  end
  begin
     id 13 
     name thorax
     direction 0.0351627 0.999285 -0.013892   
     length 2.08412   
     axis 0 0 0   XYZ
    dof rx ry rz
    limits (-20.0 45.0)
           (-30.0 30.0)
           (-30.0 30.0)
  end
  begin
     id 14 
     name lowerneck
     direction -0.0696283 0.997344 0.0213922   
     length 1.44164   
     axis 0 0 0   XYZ
    dof rx ry rz
    limits (-20.0 45.0)
           (-30.0 30.0)
           (-30.0 30.0)
  end
  begin
     id 15 
     name upperneck
     direction 0.0531 0.990412 -0.127531   
     length 1.45022   
     axis 0 0 0   XYZ
    dof rx ry rz
    limits (-20.0 45.0)
           (-30.0 30.0)
           (-30.0 30.0)
  end
  begin
     id 16
     name head
     direction 0.0188154 0.998548 -0.0504727  
     length 1.45845  
     axis 0 0 0   XYZ
    dof rx ry rz
    limits (-20.0 45.0)
           (-30.0 30.0)
           (-30.0 30.0)
  end
  begin
     id 17 
     name lclavicle
     direction 0.961559 0.260051 0.088188  
     length 2.86057  
     axis 0 0 0   XYZ
    dof ry rz
    limits (-20.0 10.0)
           (0.0 20.0)
  end
  begin
     id 18 
     name lhumerus
     direction 1 -4.48959e-011 2.88185e-027   
     length 4.36901   
     axis 180 -30 -90   XYZ
    dof rx ry rz
    limits (-60.0 90.0)
           (-90.0 90.0)
           (-90.0 90.0)
  end
  begin
     id 19
     name lradius
     direction 1 -4.48965e-011 -3.92618e-028   
     length 3.21737   
     axis 180 -30 -90   XYZ
    dof rx
    limits (-10.0 170.0)
  end
  begin
     id 20
     name lwrist
     direction 1 -4.49037e-011 2.57246e-027   
     length 1.60869   
     axis -1.61769e-015 90 90   XYZ
    dof ry
    limits (-180.0 0.0)
 end
  begin
     id 21 
     name lhand
     direction 1 -4.48807e-011 5.12958e-027   
     length 0.564313   
     axis -3.27988e-015 90 90   XYZ
    dof rx rz
    limits (-90.0 90.0)
           (-45.0 45.0)
  end
  begin
     id 22 
     name lfingers
     direction 1 -4.48879e-011 1.02687e-026   
     length 0.454963   
     axis -6.5598e-015 90 90   XYZ
    dof rx
    limits (0.0 90.0)
  end
  begin
     id 23
     name lthumb
     direction 0.707107 -6.3475e-011 0.707107   
     length 0.653239   
     axis -90 45 2.19363e-014   XYZ
    dof rx rz
    limits (-45.0 45.0)
           (-45.0 45.0)
  end
  begin
     id 24 
     name rclavicle
     direction -0.954677 0.253915 0.155304   
     length 3.11497  
     axis 0 0 0   XYZ 
    dof ry rz
    limits (-10.0 20.0)
           (-20.0 0.0)
  end
  begin
     id 25 
     name rhumerus
     direction -1 -4.48958e-011 -8.20169e-028  
     length 4.34118   
     axis 180 30 90   XYZ
    dof rx ry rz
    limits (-90.0 60.0)
           (-90.0 90.0)
           (-90.0 90.0)
  end
  begin
     id 26 
     name rradius
     direction -1 -4.48978e-011 1.5676e-027   
     length 3.09531   
     axis 180 30 90   XYZ
    dof rx
    limits (-10.0 170.0)
  end
  begin
     id 27 
     name rwrist
     direction -1 -4.49001e-011 2.57123e-027   
     length 1.54765   
     axis -1.61769e-015 -90 -90   XYZ
    dof ry
    limits (-180.0 0.0)
  end
  begin
     id 28
     name rhand
     direction -1 -4.48847e-011 5.13225e-027   
     length 0.597446   
     axis -3.27988e-015 -90 -90   XYZ
    dof rx rz
    limits (-90.0 90.0)
           (-45.0 45.0)
  end
  begin
     id 29
     name rfingers
     direction -1 -4.49094e-011 1.02974e-026   
     length 0.481677   
     axis -6.5598e-015 -90 -90   XYZ
    dof rx
    limits (0.0 90.0)
  end
  begin
     id 30
     name rthumb
     direction -0.707107 -6.34859e-011 0.707107   
     length 0.691594   
     axis -90 -45 -2.19363e-014   XYZ
    dof rx rz
    limits (-45.0 45.0)
           (-45.0 45.0)
  end
:hierarchy
  begin
    root lhipjoint rhipjoint lowerback
    lhipjoint lfemur
    lfemur ltibia
    ltibia lfoot
    lfoot ltoes
    rhipjoint rfemur
    rfemur rtibia
    rtibia rfoot
    rfoot rtoes
    lowerback upperback
    upperback thorax
    thorax lowerneck lclavicle rclavicle
    lowerneck upperneck
    upperneck head
    lclavicle lhumerus
    lhumerus lradius
    lradius lwrist
    lwrist lhand lthumb
    lhand lfingers
    rclavicle rhumerus
    rhumerus rradius
    rradius rwrist
    rwrist rhand rthumb
    rhand rfingers
  end

#!OML:ASF I:\Acrobat_Osman\acrobat\cartwheel_test 2\Patient 1\Session 1\acrobat.ASF
:FULLY-SPECIFIED
:DEGREES
2913
root 7.70645 16.098 5.38389 537.349 -183.983 -188.992
lowerback 7.70665 -1.52309 -4.12417
upperback 6.88151 -2.34583 6.52539
thorax 3.35769 -1.54374 9.37139
lowerneck -8.87594 -4.14347 -5.75407
upperneck 15.9524 -5.4095 3.85645
head 6.57785 -2.64768 1.72479
rclavicle 2.92213e-014 -5.68524e-014
rhumerus -29.9318 -3.90555 -54.3241
rradius 35.2894
rwrist -5.38136
rhand -25.0098 -341.146
rfingers 7.12502
rthumb 1.50211 -371.12
lclavicle 2.92213e-014 -5.68524e-014
lhumerus -185.67 194.98 255.594
lradius 54.2178
lwrist -327.498
lhand -20.2351 -672.584
lfingers 7.12502
lthumb 6.1128 1157.31
rfemur 51.8654 -178.056 -148.887
rtibia 106.171
rfoot -197.501 169.41
rtoes -19.7504
lfemur 165.189 165.255 166.845
ltibia 51.4025
lfoot -10.2437 7.49502
ltoes -24.5066
2914
root 7.67056 16.023 5.5934 537.459 -183.821 -189.163
lowerback 7.47555 -1.40512 -4.17945
upperback 6.97771 -2.19482 6.67824
thorax 3.57186 -1.48608 9.56075
lowerneck -8.8407 -4.21514 -5.58467
upperneck 16.0152 -5.53802 3.86099
head 6.59327 -2.69938 1.68759
rclavicle 5.56597e-015 -3.02153e-014
rhumerus -29.2341 -3.35312 -55.2878
rradius 35.5461
rwrist -5.58212
rhand -24.8368 -340.659
rfingers 7.12502
rthumb 1.66916 -370.632
lclavicle 5.56597e-015 -3.02153e-014
lhumerus -186.18 195.928 256.223
lradius 54.3398
lwrist -327.294
lhand -20.0854 -672.195
lfingers 7.12502
lthumb 6.25733 1157.69
rfemur 51.1161 -178.54 -148.746
rtibia 107.067
rfoot -196.895 169.024
rtoes -20.1428
lfemur 164.783 164.413 167.438
ltibia 53.4696
lfoot -10.4768 7.54886
ltoes -24.1692
2915
root 7.63816 15.9306 5.80006 537.459 -183.441 -189.261
lowerback 7.41354 -1.2269 -4.25649
upperback 7.18041 -1.96786 6.76217
thorax 3.78704 -1.39299 9.69075
lowerneck -8.86694 -4.25559 -5.36848
upperneck 15.9663 -5.63895 3.94972
head 6.58302 -2.72767 1.67141
rclavicle -6.85807e-015 4.45278e-014
rhumerus -28.2687 -2.89594 -56.3723
rradius 35.6736
rwrist -5.7052
rhand -24.3042 -339.955
rfingers 7.12502
rthumb 2.1836 -369.924
lclavicle -6.85807e-015 4.45278e-014
lhumerus -186.722 196.615 256.847
lradius 54.3892
lwrist -327.044
lhand -19.3963 -671.295
lfingers 7.12502
lthumb 6.92265 1158.57
rfemur 50.5931 -179.227 -148.494
rtibia 108.003
rfoot -196.579 168.626
rtoes -19.8098
lfemur 164.634 163.557 168.076
ltibia 55.4481
lfoot -10.4914 7.37635
ltoes -26.6995
2916
root 7.60824 15.8266 6.00718 537.472 -182.997 -189.219
lowerback 7.36865 -1.0818 -4.43167
upperback 7.41096 -1.78935 6.77019
thorax 4.0328 -1.32968 9.79794
lowerneck -8.8404 -4.23423 -5.18273
upperneck 15.8093 -5.66381 4.1208
head 6.52849 -2.71593 1.69483
rclavicle 0 9.14409e-015
rhumerus -27.0626 -2.38014 -57.5434
rradius 35.6961
rwrist -5.76982
rhand -23.8807 -338.862
rfingers 7.12502
rthumb 2.59253 -368.826
lclavicle 0 9.14409e-015
lhumerus -187.243 196.929 257.394
lradius 54.2382
lwrist -326.61
lhand -18.5035 -671.429
lfingers 7.12502
lthumb 7.78434 1158.41
rfemur 50.1099 -179.931 -148.206
rtibia 108.895
rfoot -195.957 168.377
rtoes -20.1046
lfemur 164.589 162.8 168.654
ltibia 57.3735
lfoot -10.5636 6.92152
ltoes -30.1577
2917
root 7.57913 15.7486 6.19537 537.635 -182.71 -188.991
lowerback 7.26422 -0.988984 -4.73047
upperback 7.59613 -1.67957 6.65168
thorax 4.2763 -1.30178 9.83866
lowerneck -8.78649 -4.21042 -4.83899
upperneck 15.5338 -5.70895 4.31142
head 6.42841 -2.70478 1.69784
rclavicle -1.98785e-016 2.46493e-014
rhumerus -25.8937 -1.72398 -58.8307
rradius 35.9302
rwrist -6.00966
rhand -23.6449 -338.089
rfingers 7.12502
rthumb 2.82032 -368.05
lclavicle -1.98785e-016 2.46493e-014
lhumerus -187.537 197.003 257.799
lradius 53.735
lwrist -326.014
lhand -17.5674 -671.239
lfingers 7.12502
lthumb 8.68783 1158.56
rfemur 49.828 -180.454 -147.885
rtibia 109.551
rfoot -195.515 168.509
rtoes -19.5278
lfemur 164.418 162.321 168.995
ltibia 59.0775
lfoot -10.641 6.2442
ltoes -32.03
2918
root 7.54678 15.6287 6.39039 537.72 -182.441 -188.469
lowerback 7.33421 -0.857456 -5.35426
upperback 7.87056 -1.53177 6.43189
thorax 4.52184 -1.27291 9.9638
lowerneck -8.7635 -4.17901 -4.38939
upperneck 15.044 -5.74793 4.50266
head 6.26276 -2.68678 1.68451
rclavicle -1.49089e-015 1.82882e-014
rhumerus -24.5526 -0.928983 -60.1098
rradius 36.2147
rwrist -6.42474
rhand -23.4106 -337.985
rfingers 7.12502
rthumb 3.04654 -367.943
lclavicle -1.49089e-015 1.82882e-014
lhumerus -187.417 197.15 257.939
lradius 52.959
lwrist -325.074
lhand -16.937 -670.407
lfingers 7.12502
lthumb 9.29616 1159.37
rfemur 49.2103 -181.026 -147.627
rtibia 110.385
rfoot -194.09 168.774
rtoes -18.1853
lfemur 164.379 161.882 169.084
ltibia 60.7731
lfoot -10.937 5.5604
ltoes -33.2085
2919
root 7.51524 15.5026 6.58475 537.83 -182.147 -187.893
lowerback 7.46576 -0.726065 -6.03706
upperback 8.2077 -1.38893 6.242
thorax 4.80746 -1.25812 10.1601
lowerneck -9.08059 -4.12542 -3.95889
upperneck 14.6778 -5.71683 4.51715
head 6.18808 -2.64498 1.61706
rclavicle 1.75924e-014 1.98785e-016
rhumerus -22.7827 0.107546 -61.1905
rradius 36.2297
rwrist -6.80649
rhand -23.2182 -337.885
rfingers 7.12502
rthumb 3.23242 -367.84
lclavicle 1.75924e-014 1.98785e-016
lhumerus -186.858 197.428 257.834
lradius 52.0031
lwrist -324.194
lhand -16.9976 -669.777
lfingers 7.12502
lthumb 9.23761 1160
rfemur 48.6546 -181.729 -147.128
rtibia 111.278
rfoot -193.44 168.893
rtoes -16.6005
lfemur 164.463 161.348 169.112
ltibia 62.3087
lfoot -11.5176 4.89246
ltoes -33.8926
2920
root 7.48683 15.3737 6.77563 538.076 -181.911 -187.544
lowerback 7.72912 -0.645525 -6.44694
upperback 8.47821 -1.31 6.17212
thorax 4.9547 -1.25825 10.3319
lowerneck -9.64036 -4.05681 -3.58842
upperneck 14.3949 -5.62937 4.3711
head 6.17665 -2.58785 1.50863
rclavicle -1.11319e-014 -1.94809e-014
rhumerus -20.7881 1.48501 -61.9557
rradius 36.1775
rwrist -6.95333
rhand -22.9276 -337.48
rfingers 7.12502
rthumb 3.51306 -367.431
lclavicle -1.11319e-014 -1.94809e-014
lhumerus -185.942 197.871 257.478
lradius 50.9985
lwrist -323.941
lhand -17.0702 -668.65
lfingers 7.12502
lthumb 9.16756 1161.13
rfemur 48.1924 -182.505 -146.256
rtibia 112.164
rfoot -193.508 168.903
rtoes -16.2863
lfemur 164.512 160.795 169.28
ltibia 63.6806
lfoot -12.2426 4.38945
ltoes -33.954
2921
root 7.4631 15.2504 6.96149 538.536 -181.81 -187.23
lowerback 8.06419 -0.636329 -6.71248
upperback 8.61908 -1.32343 6.12767
thorax 4.93648 -1.28483 10.4486
lowerneck -9.83506 -3.96294 -3.3682
upperneck 13.6819 -5.50434 4.38409
head 5.97423 -2.51895 1.48765
rclavicle 1.73937e-014 -7.37491e-014
rhumerus -18.8361 3.02682 -62.3897
rradius 36.254
rwrist -6.4654
rhand -22.372 -336.703
rfingers 7.12502
rthumb 4.04954 -366.644
lclavicle 1.73937e-014 -7.37491e-014
lhumerus -184.858 198.8 256.72
lradius 50.3059
lwrist -323.907
lhand -17.586 -667.56
lfingers 7.12502
lthumb 8.66991 1162.24
rfemur 47.491 -183.305 -145.288
rtibia 113.172
rfoot -193.983 168.113
rtoes -19.3132
lfemur 164.434 160.263 169.263
ltibia 64.7601
lfoot -13.0122 4.40692
ltoes -34.8558
